PathFileType	4	(X/Y/Z)	0_coords_data.trc
DataRate	CameraRate	NumFrames	NumMarkers	Units	OrigDataRate	OrigDataStartFrame	OrigNumFrames
30.0	30.0	6	21	m	30.0	40	78
Frame#	Time	THUMB_TIP	THUMB_IP	THUMB_MCP	THUMB_CMC	INDEX_TIP	INDEX_DIP	INDEX_PIP	INDEX_MCP	MIDDLE_TIP	MIDDLE_DIP	MIDDLE_PIP	MIDDLE_MCP	RING_TIP	RING_DIP	RING_PIP	RING_MCP	PINKY_TIP	PINKY_DIP	PINKY_PIP	PINKY_MCP	WRIST
X1	Y1	Z1	X2	Y2	Z2	X3	Y3	Z3	X4	Y4	Z4	X5	Y5	Z5	X6	Y6	Z6	X7	Y7	Z7	X8	Y8	Z8	X9	Y9	Z9	X10	Y10	Z10	X11	Y11	Z11	X12	Y12	Z12	X13	Y13	Z13	X14	Y14	Z14	X15	Y15	Z15	X16	Y16	Z16	X17	Y17	Z17	X18	Y18	Z18	X19	Y19	Z19	X20	Y20	Z20	X21	Y21	Z21
38	1.299999999999994	0.5298858274606306	-0.01341435653902645	-0.14698673851171673	0.5122859665973807	-0.017842667911358245	-0.13289294711323502	0.4848932583929568	-0.025401359186905448	-0.1201915407569194	0.47646517373668884	-0.027649297607613144	-0.07644449329216474	0.5676565684270483	0.008098480638937033	-0.15035601573460944	0.5526561330932014	0.016496734671281987	-0.1446589753623389	0.5308043016745647	0.024729781252639804	-0.13534639029477152	0.4927573600793048	0.022740480849933298	-0.11631722811787382	0.583596670671824	0.007763970223492733	-0.13849993947890027	0.5694960775228026	0.015819652070434564	-0.13048250455078114	0.5460482868361638	0.027409840756678072	-0.11762644807405226	0.5064360553687731	0.02868088007049363	-0.09700113599795002	0.5849976115797868	-7.664606399959695e-05	-0.113935277512272	0.5756034237354825	0.012683167934104067	-0.10533665079170051	0.5586345766714568	0.027152137544042998	-0.09425120417262506	0.5209311365932828	0.023731148477366237	-0.08005725214800441	0.5816726785723905	-0.006631728965292183	-0.09373151294617638	0.5753429882060193	0.004430170863841787	-0.08230481648411553	0.5622160682492476	0.015438278049823007	-0.07016737162819708	0.5275778570955567	0.010165733954558775	-0.06160711124455165	0.4622830810018609	-0.023011742144276925	-0.051989820119430985
39	1.3333333333333275	0.5299998646778933	-0.013408333517655358	-0.14687924573715827	0.512360762746195	-0.017822400355730683	-0.13283011419844165	0.4849486017479686	-0.025393406217918302	-0.12017810646677946	0.4764691382955649	-0.027652593834138317	-0.07644156829931509	0.567551406486167	0.007582700200652104	-0.1501573969596352	0.5526063882201733	0.016116786784032278	-0.14451684776505458	0.530802277014652	0.024564989889684474	-0.13528546477966646	0.49272075561855344	0.02278188303906392	-0.1163050972353391	0.5833713529507568	0.007237157958929763	-0.1384299126540967	0.5693806231152783	0.015500207599563276	-0.13043106965607026	0.5460418420763382	0.027332819821017762	-0.11759751451210887	0.5064265774397599	0.028703527245061644	-0.0969844145528223	0.58482260061386	-0.0002895872864002724	-0.11388938102508778	0.575511613128019	0.012534840923492885	-0.1052963866035948	0.5586182804905213	0.027107135972198715	-0.09423096711709	0.520908159799579	0.02377399074225106	-0.08003386268165452	0.5816174360492983	-0.00661978611741787	-0.09369488106594764	0.5753156981983183	0.004447033229473929	-0.08225750332449006	0.5622159620488968	0.015478782918986411	-0.07011215727740355	0.5275771907614345	0.010177160064510526	-0.06157214733573596	0.462283081001861	-0.023011742144276925	-0.051989820119430985
40	1.3666666666666607	0.5302328956327641	-0.01338573306018842	-0.14665365968585592	0.5125138365551182	-0.017791892113734664	-0.1327030070918821	0.4850580500263115	-0.025362527961722003	-0.12014572797012318	0.4764987061402385	-0.02764445994945841	-0.07642593361283823	0.5674677018793527	0.007018968427977557	-0.14987496221973529	0.5525901737784316	0.0157210619082071	-0.1443132424616344	0.5308355618206624	0.02439550083615416	-0.13517536519980794	0.49270827747667356	0.022844113167489022	-0.11626665083700305	0.5831226495643332	0.00659047223323872	-0.13828186147599697	0.5692453166613182	0.015073368313709756	-0.13031567634214364	0.5460239894083517	0.02716969105072531	-0.11751495421983349	0.5064045180797557	0.0287724929654668	-0.09692669449093311	0.5846071266170216	-0.0006234166988503542	-0.1138230564229436	0.5754069615765461	0.01230258548264107	-0.10526294948248455	0.5585983322848509	0.026991491618635677	-0.09422275035102379	0.5208888345305923	0.023827189053744258	-0.07998541203238418	0.5815323236955513	-0.006645079905424733	-0.09362896264627873	0.5752652965157979	0.004444319139921271	-0.08219438354858949	0.5622005060377426	0.01551660421581802	-0.07004828244730643	0.527558161499551	0.010231751029694758	-0.0615123734331266	0.4622830810018609	-0.023011742144276925	-0.05198982011943093
41	1.3999999999999937	0.5306655709299465	-0.01336436923965345	-0.14625156837924064	0.5128254976086466	-0.017768486201898415	-0.13245535376531448	0.4852876520043853	-0.025343921424068272	-0.12008200172673661	0.47654605664626104	-0.027640611554673566	-0.07639905625554838	0.5674760890157947	0.006531544031327052	-0.14948910664049553	0.552639719895156	0.015367120726255679	-0.1440288194883217	0.5309139431309353	0.024232755771230075	-0.13500657075308026	0.4927321586581275	0.022937247885318368	-0.11618878427885343	0.5829366470047377	0.005932302032132464	-0.13798940337351978	0.5691531433190882	0.014628428002302019	-0.1300905161570426	0.5460348431523045	0.026994624206674422	-0.11736137876154484	0.5064024830645156	0.028866059184766146	-0.09682064639888038	0.5843943120626378	-0.0010322020003218357	-0.11364225825641067	0.5753005881369299	0.012010441002256345	-0.10514557368710314	0.5585720273325929	0.026832840194975338	-0.09416232669055025	0.5208600041176693	0.023928158700140645	-0.0798764257931398	0.5814153802623836	-0.006715231423351176	-0.09351256691383114	0.5751991033102984	0.00440967813651405	-0.08208478112043288	0.5621912447894319	0.01554712179059825	-0.06993714824183395	0.5275435514305056	0.010290887335335008	-0.06140527885364516	0.4622830810018609	-0.023011742144276925	-0.05198982011943093
42	1.4333333333333271	0.5309589094309102	-0.013407926812137205	-0.14597489696521387	0.5130323958456826	-0.0178027393021285	-0.13228819780667073	0.48543158593760116	-0.025352213000499946	-0.12003990244382295	0.47658188875839747	-0.02763974333659791	-0.07637824804550875	0.567493421886001	0.006385340178966636	-0.14928333903862656	0.5526623515161526	0.015261370625878401	-0.14387450966526866	0.5309373131239411	0.024181953832599357	-0.13490479756794332	0.4927391681932177	0.023042288724676285	-0.11611014457052832	0.5828162392704186	0.005497030314233653	-0.13775165465556904	0.569073781690231	0.01430896017030936	-0.12990979570068156	0.5460019279683446	0.026823330657568034	-0.11724134484260512	0.5063786557622836	0.028980718893421686	-0.09671112573310203	0.5842061889583424	-0.0014726234877580069	-0.11345160776494478	0.5752037474840804	0.011686632121380547	-0.1050379260906808	0.5585352711667574	0.026626123075901287	-0.09412218121098354	0.520833464096615	0.024036697984062494	-0.0797489611354571	0.5810927232355453	-0.007048961035478141	-0.09348349243368642	0.5750345562950807	0.004177405148948932	-0.08207002163753452	0.562171916750076	0.01547180328270581	-0.06991267432278397	0.5275264372761375	0.010357906706231712	-0.061285840324959096	0.462283081001861	-0.023011742144276925	-0.05198982011943104
43	1.4666666666666603	0.5309203616479973	-0.01356386332637538	-0.14602223247726842	0.5129983859932422	-0.01791050046511944	-0.1323142226211858	0.48537544246689823	-0.025388004513324014	-0.12007167696476684	0.47651096534875537	-0.027674973166542882	-0.07641299146232511	0.5674598565472188	0.006774066349174657	-0.1495158481300894	0.552565648063913	0.01551064531974955	-0.14405372935192934	0.5308107225244151	0.024270752471593826	-0.1349986992327572	0.4926714729110545	0.023121375426650603	-0.11608540588288457	0.5827950692835647	0.005560085227828249	-0.137861595655983	0.5689905766023093	0.014271356654664946	-0.1300162319333027	0.54587793539443	0.02668559251422631	-0.11732363115887445	0.5063204214168013	0.029048622577874883	-0.09668950656324371	0.5841397738256349	-0.0017053955781237695	-0.11352388990299656	0.5751163204151216	0.011468428222737304	-0.10515563709777137	0.5584429629934544	0.0264375604964735	-0.09428806099908521	0.5207948404073688	0.024094087914356632	-0.07973306749170311	0.5807138911553724	-0.007575807351084429	-0.09372843148879612	0.574826682871968	0.0037618673959199933	-0.08233554291921225	0.5621330654396646	0.015227062305355976	-0.07016042890861829	0.5275104868299859	0.010389001159222366	-0.06128610269403134	0.4622830810018608	-0.023011742144276925	-0.051989820119430985
